<?xml version="1.0" encoding="utf-8"?>
<!-- Generator: Adobe Illustrator 24.0.0, SVG Export Plug-In . SVG Version: 6.00 Build 0)  -->
<svg version="1.1" id="Layer_1" xmlns="http://www.w3.org/2000/svg" xmlns:xlink="http://www.w3.org/1999/xlink" x="0px" y="0px"
	 viewBox="0 0 200 200" style="enable-background:new 0 0 200 200;" xml:space="preserve">
<style type="text/css">
	.st0{fill:#8BAAE3;}
	.st1{fill:#DC8EA4;}
	.st2{fill:#F2AF82;}
	.st3{fill:#CB8EB7;}
	.st4{fill:#4CAB96;}
	.st5{fill:#D292A2;}
	.st6{fill:#91D281;}
	.st7{fill:#A7ACD2;}
	.st8{fill:#F8A674;}
	.st9{fill:#5395E5;}
</style>
<g>
	<path class="st0" d="M141.7,143c0.4-0.2,0.8-0.5,1.1-0.7l25,13.3l-22.2,5.2L141.7,143z"/>
	<circle class="st1" cx="138.3" cy="136.5" r="2.2"/>
	<path class="st0" d="M131,136.5c0,1.2,0.3,2.4,0.8,3.4L116,162.4l-17-17.8l25.4-38.5c1.1,0.4,2.4,0.6,3.6,0.6c0.3,0,0.6,0,0.8,0
		l5.3,23.8C132.3,131.8,131,134,131,136.5z"/>
	<path class="st2" d="M71.7,105l-20.4,4.3l28.2-29.2l-2.6,19.7C74.3,100.4,72.3,102.5,71.7,105z"/>
	<path class="st3" d="M138.3,92c-0.3-0.8-0.7-1.6-1.2-2.2l35.5-34.3L167,88.8L138.3,92z"/>
	<circle class="st1" cx="128.1" cy="95.9" r="5.8"/>
	<path class="st4" d="M85.5,104c-0.7-1.7-2-3-3.6-3.8l3.2-24.1l32.2,18.7c0,0.3-0.1,0.7-0.1,1c0,0.3,0,0.6,0,0.8L85.5,104z"/>
	<polygon class="st5" points="45.3,75 18.7,40.6 75.3,46.9 	"/>
	<circle class="st1" cx="83.1" cy="44.3" r="2.2"/>
	<path class="st3" d="M133.4,86.3c-1-0.6-2.1-1-3.3-1.2l-3.8-33.6l43.8-0.6L133.4,86.3z"/>
	<polygon class="st6" points="98,43.3 137.7,27.4 122.3,46.3 	"/>
	<path class="st5" d="M89.6,47.4l31.5,3.9l3.9,34.1c-0.7,0.2-1.3,0.5-2,0.8L89.1,48.4C89.3,48.1,89.5,47.8,89.6,47.4z"/>
	<polygon class="st7" points="178.1,53.6 193,68.4 172.8,84.9 	"/>
	<polygon class="st3" points="128.8,46.4 146.2,25.1 169.8,45.8 	"/>
	<polygon class="st8" points="89.9,41.1 117.5,13.5 138.9,21.5 	"/>
	<path class="st8" d="M86.1,37.7c-0.9-0.4-1.9-0.7-3-0.7c-0.5,0-1,0.1-1.5,0.1L66.9,13h43.8L86.1,37.7z"/>
	<path class="st8" d="M77.3,39.9c-0.5,0.6-0.8,1.3-1.1,2l-54.9-6.1l40.2-21.9L77.3,39.9z"/>
	<polygon class="st3" points="39.5,75.8 0.1,72.9 13.6,42.3 	"/>
	<path class="st3" d="M79.1,50.3c1.2,0.8,2.5,1.2,4,1.2c0.6,0,1.2-0.1,1.8-0.2l34.3,38.3c-0.1,0.1-0.1,0.2-0.2,0.3L83,69.1
		L58.3,94.6L48.3,79.2L79.1,50.3z"/>
	<circle class="st1" cx="78.7" cy="106.8" r="2.2"/>
	<path class="st0" d="M85.6,109.2l33.3-7.7c0.4,0.6,0.9,1.2,1.4,1.8l-24.1,36.5l-13.5-26.9C84,112,85,110.8,85.6,109.2z"/>
	<path class="st2" d="M139,97.1l28.5-3.2l11.2,29l-40-24.1C138.8,98.2,138.9,97.6,139,97.1z"/>
	<polygon class="st7" points="173.8,96 199.1,107.3 184.6,124.1 	"/>
	<polygon class="st1" points="200,102.1 174,90.5 195,73.3 	"/>
	<polygon class="st7" points="8.4,101.4 0,78 43.5,81.2 54.7,98.4 42.6,111 	"/>
	<path class="st7" d="M46.8,115.4l25.4-5.3c1,2,2.9,3.4,5.2,3.8l14,28.1l-29.8-2.4L46.8,115.4z"/>
	<path class="st9" d="M119.6,166.2l16.1-22.9c0.3,0.1,0.6,0.2,0.9,0.3l4.6,20.4l-1.7,23L119.6,166.2z"/>
	<path class="st0" d="M173.5,152.8l-28-15c0.1-0.4,0.1-0.9,0.1-1.3c0-3.7-2.8-6.7-6.3-7.2l-5.4-24.2c0.9-0.5,1.7-1.2,2.3-1.9
		l44.5,26.8L173.5,152.8z"/>
</g>
</svg>
