<?xml version="1.0" encoding="utf-8"?>
<!-- Generator: Adobe Illustrator 24.0.0, SVG Export Plug-In . SVG Version: 6.00 Build 0)  -->
<svg version="1.1" id="Layer_1" xmlns="http://www.w3.org/2000/svg" xmlns:xlink="http://www.w3.org/1999/xlink" x="0px" y="0px"
	 viewBox="0 0 1088 688" style="enable-background:new 0 0 1088 688;" xml:space="preserve">
<style type="text/css">
	.st0{fill:#8BAAE3;}
	.st1{fill:#DC8EA4;}
	.st2{fill:#F2AF82;}
	.st3{fill:#CB8EB7;}
	.st4{fill:#4CAB96;}
	.st5{fill:#D292A2;}
	.st6{fill:#91D281;}
	.st7{fill:#A7ACD2;}
	.st8{fill:#F8A674;}
	.st9{fill:#5395E5;}
	.st10{fill:#FFFFFF;}
</style>
<g>
	<path class="st0" d="M216.4,582.4l-86.5-20.1l97.7-52.1c1.4,1.1,2.9,2.1,4.5,2.9L216.4,582.4z"/>
	<circle class="st1" cx="245.2" cy="488" r="8.5"/>
	<path class="st0" d="M260.8,464.3l20.9-92.8c1.1,0.1,2.1,0.2,3.2,0.2c5,0,9.8-0.9,14.2-2.5l99.4,150.3L332.1,589l-61.8-87.9
		c2.1-3.9,3.2-8.4,3.2-13.1C273.5,478.1,268.4,469.4,260.8,464.3z"/>
	<path class="st2" d="M485.2,344.3l-10.1-76.8l110,114l-79.8-16.7C502.8,354.9,495.1,347,485.2,344.3z"/>
	<path class="st3" d="M133.1,301.6l-22.1-130.2l138.6,133.9c-1.8,2.7-3.3,5.7-4.5,8.8L133.1,301.6z"/>
	<circle class="st1" cx="284.9" cy="329.1" r="22.7"/>
	<path class="st4" d="M327.3,332.4c0.1-1.1,0.2-2.2,0.2-3.3c0-1.4-0.1-2.7-0.2-4.1l125.8-73l12.4,94.1c-6.3,3.1-11.3,8.4-13.9,14.9
		L327.3,332.4z"/>
	<polygon class="st5" points="491.1,137.8 712.4,113.2 608.5,247.7 	"/>
	<circle class="st1" cx="460.8" cy="127.7" r="8.5"/>
	<path class="st3" d="M121.1,153.6l171.1,2.3l-14.9,131.4c-4.6,0.8-9,2.4-13,4.6L121.1,153.6z"/>
	<polygon class="st6" points="307.5,135.6 247.3,61.8 402.7,124 	"/>
	<path class="st5" d="M437.3,143.6l-132.4,148c-2.4-1.3-5-2.4-7.6-3.2L312.3,155L435.2,140C435.8,141.2,436.5,142.4,437.3,143.6z"/>
	<polygon class="st7" points="110.4,286.3 31.6,222 89.6,163.9 	"/>
	<polygon class="st3" points="122.1,133.7 214.2,52.6 282.2,135.9 	"/>
	<polygon class="st8" points="242.8,38.6 326.3,7.3 434.2,115.2 	"/>
	<path class="st8" d="M352.8,5.7h171.1l-57.4,94.2c-1.9-0.4-3.8-0.6-5.7-0.6c-4.2,0-8.2,0.9-11.7,2.6L352.8,5.7z"/>
	<path class="st8" d="M545.2,9L702,94.4l-214.6,23.8c-1-2.8-2.4-5.4-4.2-7.7L545.2,9z"/>
	<polygon class="st3" points="732.2,120 785,239.4 631.2,250.9 	"/>
	<path class="st3" d="M596.8,264l-39.4,60.3l-96.3-99.8L320.5,306c-0.3-0.4-0.5-0.8-0.8-1.2l133.9-149.6c2.3,0.6,4.7,1,7.2,1
		c5.8,0,11.2-1.8,15.7-4.8L596.8,264z"/>
	<circle class="st1" cx="477.8" cy="371.7" r="8.5"/>
	<path class="st0" d="M462.5,395.6l-52.6,105.2l-94.2-142.5c2-2.1,3.8-4.5,5.3-6.9l130.1,30C453.3,387.3,457.4,392.2,462.5,395.6z"
		/>
	<path class="st2" d="M243.9,340.5L87.5,434.8l43.6-113.4l111.5,12.4C242.8,336.1,243.3,338.3,243.9,340.5z"/>
	<polygon class="st7" points="64.5,439.2 7.5,373.8 106.7,329.5 	"/>
	<polygon class="st1" points="23.7,241.2 105.8,308.2 4.2,353.6 	"/>
	<polygon class="st7" points="619,388.1 571.6,338.9 615.3,272 785.3,259.3 752.5,350.7 	"/>
	<path class="st7" d="M544.3,499.8l-116.4,9.5l54.9-109.7c8.8-1.6,16.3-7.2,20.2-14.9l99.4,20.8L544.3,499.8z"/>
	<path class="st9" d="M240.6,684.9l-6.7-89.7l18-79.6c1.2-0.3,2.4-0.7,3.5-1.1l62.7,89.3L240.6,684.9z"/>
	<path class="st0" d="M79.7,462.7l173.9-104.8c2.7,2.9,5.7,5.4,9.1,7.5l-21.3,94.5c-13.9,1.8-24.6,13.7-24.6,28.1
		c0,1.8,0.2,3.5,0.5,5.2l-109.5,58.4L79.7,462.7z"/>
</g>
<g>
	<g>
		<g>
			<polygon points="479.9,614.3 479.9,381.1 594.9,381.1 594.9,441.5 548.1,441.5 548.1,467.2 591.9,467.2 591.9,527.6 548.1,527.6 
				548.1,614.3 			"/>
			<path class="st10" d="M591.4,384.6V438h-46.8v32.7h43.8v53.4h-43.8v86.7h-61.2V384.6H591.4 M598.4,377.6h-7h-108h-7v7v226.2v7h7
				h61.2h7v-7v-79.7h36.8h7v-7v-53.4v-7h-7h-36.8V445h39.8h7v-7v-53.4V377.6L598.4,377.6z"/>
		</g>
		<g>
			<polygon points="664.4,614.3 664.4,515.5 606.8,381.1 678.3,381.1 697,443.4 716,381.1 787.1,381.1 732.6,515.5 732.6,614.3 			
				"/>
			<path class="st10" d="M781.9,384.6l-52.8,130.2v96h-61.2v-96l-55.8-130.2h63.6l21,69.9h0.6l21.3-69.9H781.9 M792.3,377.6h-10.4
				h-63.3h-5.2l-1.5,5l-14.9,48.8l-14.6-48.7l-1.5-5h-5.2h-63.6h-10.6l4.2,9.8l55.2,128.9v94.6v7h7h61.2h7v-7v-94.6l52.3-128.9
				L792.3,377.6L792.3,377.6z"/>
		</g>
		<g>
			<path d="M960.1,614.3L955.6,502c-0.9,5.6-1.8,11.2-2.8,16.7l-17.9,95.6h-55.7l-15.9-105.9c-0.1,3.5-0.2,7-0.4,10.5l-5.3,95.4
				h-72.9l27.2-233.2h82.3l14.5,100.1c0.9-6.3,1.8-12.6,3.1-18.9l15.2-81.1h81.4l22.6,233.2H960.1z"/>
			<path class="st10" d="M1005.1,384.6l21.9,226.2h-63.6l-5.7-142.2h-0.6c-2.7,16.5-4.8,33-7.8,49.5l-17.4,92.7h-49.8l-21.3-142.2
				h-0.6c-0.3,16.8,0,33.3-0.9,50.1l-5.1,92.1h-65.7l26.4-226.2h76.2l17.4,120.3h0.6c1.8-14.1,3.3-27.9,6-42l14.7-78.3H1005.1
				 M1011.5,377.6h-6.4h-75.3H924l-1.1,5.7l-14.1,75l-10.8-74.7l-0.9-6h-6.1h-76.2h-6.2l-0.7,6.2L781.6,610l-0.9,7.8h7.9h65.7h6.6
				l0.4-6.6l3.7-67.7l10.2,68.4l0.9,6h6h49.8h5.8l1.1-5.7l14.6-77.6l3.1,76.5l0.3,6.7h6.7h63.6h7.7l-0.7-7.7l-21.9-226.2
				L1011.5,377.6L1011.5,377.6z"/>
		</g>
	</g>
</g>
</svg>
